<mxfile host="app.diagrams.net" modified="2023-06-29T11:29:09.591Z" agent="Mozilla/5.0 (Windows NT 10.0; Win64; x64) AppleWebKit/537.36 (KHTML, like Gecko) Chrome/114.0.0.0 Safari/537.36" etag="JL3glJeiEllSiKpmA37D" version="21.5.2" type="device">
  <diagram name="Page-1" id="2YBvvXClWsGukQMizWep">
    <mxGraphModel dx="989" dy="482" grid="1" gridSize="10" guides="1" tooltips="1" connect="1" arrows="1" fold="1" page="1" pageScale="1" pageWidth="1100" pageHeight="850" math="0" shadow="0">
      <root>
        <mxCell id="0" />
        <mxCell id="1" parent="0" />
        <mxCell id="VPRZXzCpc_OCqv9wzlIt-10" style="edgeStyle=orthogonalEdgeStyle;rounded=0;orthogonalLoop=1;jettySize=auto;html=1;exitX=0.5;exitY=0.5;exitDx=0;exitDy=0;exitPerimeter=0;dashed=1;dashPattern=12 12;" edge="1" parent="1" source="VPRZXzCpc_OCqv9wzlIt-1" target="VPRZXzCpc_OCqv9wzlIt-5">
          <mxGeometry relative="1" as="geometry">
            <Array as="points">
              <mxPoint x="140" y="300" />
              <mxPoint x="140" y="300" />
            </Array>
          </mxGeometry>
        </mxCell>
        <mxCell id="VPRZXzCpc_OCqv9wzlIt-11" value="&lt;font style=&quot;font-size: 13px;&quot;&gt;Konsoleneingabe&lt;/font&gt;" style="edgeLabel;html=1;align=center;verticalAlign=middle;resizable=0;points=[];" vertex="1" connectable="0" parent="VPRZXzCpc_OCqv9wzlIt-10">
          <mxGeometry x="0.025" y="-2" relative="1" as="geometry">
            <mxPoint x="-3" y="-12" as="offset" />
          </mxGeometry>
        </mxCell>
        <mxCell id="VPRZXzCpc_OCqv9wzlIt-1" value="&lt;font style=&quot;font-size: 12px;&quot;&gt;&lt;b&gt;Anwender&lt;/b&gt;&lt;br&gt;Will Info zu NBA-Team&amp;nbsp;&lt;br&gt;fÃ¼r ein bestimmtes Jahr&lt;/font&gt;" style="shape=umlActor;verticalLabelPosition=bottom;verticalAlign=top;html=1;outlineConnect=0;fillColor=#FF441F;strokeColor=#36393d;gradientColor=#660000;" vertex="1" parent="1">
          <mxGeometry x="50" y="270" width="30" height="65" as="geometry" />
        </mxCell>
        <mxCell id="VPRZXzCpc_OCqv9wzlIt-12" value="" style="edgeStyle=orthogonalEdgeStyle;rounded=0;orthogonalLoop=1;jettySize=auto;html=1;endArrow=classic;endFill=1;strokeColor=none;" edge="1" parent="1" source="VPRZXzCpc_OCqv9wzlIt-5" target="VPRZXzCpc_OCqv9wzlIt-7">
          <mxGeometry relative="1" as="geometry" />
        </mxCell>
        <mxCell id="VPRZXzCpc_OCqv9wzlIt-14" value="&lt;font style=&quot;font-size: 13px;&quot;&gt;REST&lt;/font&gt;" style="edgeLabel;html=1;align=center;verticalAlign=middle;resizable=0;points=[];" vertex="1" connectable="0" parent="VPRZXzCpc_OCqv9wzlIt-12">
          <mxGeometry x="-0.0308" y="-5" relative="1" as="geometry">
            <mxPoint y="-20" as="offset" />
          </mxGeometry>
        </mxCell>
        <mxCell id="VPRZXzCpc_OCqv9wzlIt-5" value="&lt;font style=&quot;font-size: 14px;&quot;&gt;&lt;b&gt;NBA_Games_App&lt;br&gt;&lt;/b&gt;&lt;br&gt;verarbeitet Eingabe &lt;br&gt;Abfrage von NBA-Daten&lt;br&gt;Stellt Ergebnis dar&lt;br&gt;&lt;/font&gt;" style="rounded=0;whiteSpace=wrap;html=1;fillColor=#901d38;fontColor=#ffffff;strokeColor=#6F0000;gradientColor=#530e0e;" vertex="1" parent="1">
          <mxGeometry x="240" y="255" width="240" height="120" as="geometry" />
        </mxCell>
        <mxCell id="VPRZXzCpc_OCqv9wzlIt-7" value="&lt;b style=&quot;font-size: 14px;&quot;&gt;&lt;br&gt;Externe Rest-API&lt;br&gt;&lt;br&gt;balldontlie.io&lt;br&gt;&lt;br&gt;&lt;/b&gt;" style="rounded=0;whiteSpace=wrap;html=1;fillColor=#EBB088;strokeColor=#36393d;gradientColor=#F0984A;" vertex="1" parent="1">
          <mxGeometry x="600" y="270" width="160" height="85" as="geometry" />
        </mxCell>
        <mxCell id="VPRZXzCpc_OCqv9wzlIt-22" value="" style="endArrow=classic;startArrow=classic;html=1;rounded=0;exitX=1;exitY=0.5;exitDx=0;exitDy=0;dashed=1;dashPattern=12 12;" edge="1" parent="1">
          <mxGeometry width="100" height="100" relative="1" as="geometry">
            <mxPoint x="480" y="312.16" as="sourcePoint" />
            <mxPoint x="600" y="312.16" as="targetPoint" />
          </mxGeometry>
        </mxCell>
      </root>
    </mxGraphModel>
  </diagram>
</mxfile>
